<svg xmlns="http://www.w3.org/2000/svg" viewBox="0 0 230.85 34.39"><defs><style>.cls-1{fill:#005294;}.cls-2{fill:#fff;}.cls-3{fill:#0db04a;}</style></defs><g id="Layer_2" data-name="Layer 2"><g id="Layer_1-2" data-name="Layer 1"><path class="cls-1" d="M53.82,5.22a2.28,2.28,0,0,0-2.27,1.35L42.33,29.51h2.19l3.38-8.38h7.77l3.4,8.38h6.14l-9-22.31a2.69,2.69,0,0,0-2.39-2M48.7,19.1l3-7.69,3.1,7.69Zm47.86-.49a6.61,6.61,0,0,0-3.28-2.06,5.55,5.55,0,0,0,3.3-5.81C96.29,5.53,90,5.26,88.7,5.26h-.34l-4.89,0H80.54a2.55,2.55,0,0,0-2.48,2.56V29.53H88.68c3.06,0,8.29-.78,9-6a6.18,6.18,0,0,0-1.13-4.94M83.8,8.52a1.46,1.46,0,0,1,1.63-1.45H87a4,4,0,0,1,4.18,4.19c0,3-1.93,4.26-3.59,4.43H83.8Zm2.72,19H83.8V17.63h3.29a4.76,4.76,0,0,1,5,5.13c0,4.33-4.28,4.73-5.58,4.75m-19-19.68V29.51h5.69V5.27H70a2.55,2.55,0,0,0-2.48,2.56"/><path class="cls-2" d="M17.86,0C8,0,0,7.72,0,17.2S8,34.39,17.86,34.39,35.71,26.68,35.71,17.2,27.7,0,17.86,0"/><path class="cls-3" d="M22.15,13.1a5.67,5.67,0,0,0-3.44,3.2c2.91-1.2,3.44-3.2,3.44-3.2"/><path class="cls-3" d="M22.11,21.33A5.69,5.69,0,0,0,18.77,18a5.59,5.59,0,0,0,3.34,3.29"/><path class="cls-3" d="M17.77,7.75A8.54,8.54,0,0,1,19.09,6.1a8.85,8.85,0,0,1,3-1.9,8.59,8.59,0,0,0-4.31-2.75,8.59,8.59,0,0,0-4.32,2.8,8.82,8.82,0,0,1,3,1.89,8.62,8.62,0,0,1,1.32,1.61"/><path class="cls-3" d="M18.79,9.71a7.55,7.55,0,0,1,.5,4,8,8,0,0,1,3.28-2.55,5.79,5.79,0,0,0,.15-1.31,6.08,6.08,0,0,0-.65-2.71,6.58,6.58,0,0,0-2.41,1.48,6.29,6.29,0,0,0-.87,1.06"/><path class="cls-3" d="M17.8,11.36a5.41,5.41,0,0,0,0,4.61,5.28,5.28,0,0,0,0-4.61"/><path class="cls-3" d="M23.89,17.31a6,6,0,0,0-4.78-.14,5.82,5.82,0,0,0,4.78.14"/><path class="cls-3" d="M11.77,17.31a6,6,0,0,0,4.78,0,5.84,5.84,0,0,0-4.78,0"/><path class="cls-3" d="M17.9,18.43a5.25,5.25,0,0,0,0,4.61,5.43,5.43,0,0,0,0-4.61"/><path class="cls-1" d="M21.4,15.75a8.24,8.24,0,0,1,4.19.43,6.24,6.24,0,0,0,1.07-.83A6,6,0,0,0,28.19,13a6.81,6.81,0,0,0-2.79-.59,6.57,6.57,0,0,0-1.39.15,7.83,7.83,0,0,1-2.61,3.2"/><path class="cls-1" d="M23.67,30.55a8.29,8.29,0,0,1-3.12,2.75h.08a17.23,17.23,0,0,0,7.14-2.88l.09-.09a8.86,8.86,0,0,1-4.19.22"/><path class="cls-1" d="M12,3.85A8.36,8.36,0,0,1,15.11,1.1H15A17.22,17.22,0,0,0,7.89,4l-.08.09A8.82,8.82,0,0,1,12,3.85"/><path class="cls-1" d="M12.16,30.61a8.73,8.73,0,0,1-4.22-.17l0,0a17.11,17.11,0,0,0,7.16,2.83h.13a8.38,8.38,0,0,1-3.12-2.7"/><path class="cls-1" d="M24.73,10.47a8.83,8.83,0,0,1,2.14-.26,9,9,0,0,1,3.5.68,8,8,0,0,0-1-4.89,8.9,8.9,0,0,0-5.11-1A8.16,8.16,0,0,1,25,8.44a8.49,8.49,0,0,1-.25,2"/><path class="cls-1" d="M4,22.82a8.22,8.22,0,0,1-2.86-3v.07a16,16,0,0,0,3,6.89l.08.08a7.8,7.8,0,0,1-.22-4"/><path class="cls-1" d="M23.5,3.79A8.77,8.77,0,0,1,27.73,4l-.06,0a17.33,17.33,0,0,0-7.16-2.83h-.12A8.39,8.39,0,0,1,23.5,3.79"/><path class="cls-1" d="M31.76,22.66a7.91,7.91,0,0,1-.18,4.07l.05-.05a15.77,15.77,0,0,0,2.93-6.9v-.12a8.21,8.21,0,0,1-2.8,3"/><path class="cls-3" d="M28.25,21.28A6.21,6.21,0,0,0,26.71,19a6.4,6.4,0,0,0-1.1-.84,8.32,8.32,0,0,1-3,.56,7.71,7.71,0,0,1-1.18-.08,7.75,7.75,0,0,1,2.64,3.17,6.81,6.81,0,0,0,4.18-.49"/><path class="cls-1" d="M26.93,24.08a9.1,9.1,0,0,1-2.11-.24,7.89,7.89,0,0,1,.27,2.07,8.15,8.15,0,0,1-.7,3.36,8.88,8.88,0,0,0,5.07-1,8.1,8.1,0,0,0,1-4.92,8.93,8.93,0,0,1-3.52.72"/><path class="cls-1" d="M19.34,20.64a7.55,7.55,0,0,1-.45,4,5.72,5.72,0,0,0,.87,1,6.44,6.44,0,0,0,2.44,1.48,6.13,6.13,0,0,0,.62-2.69,6.06,6.06,0,0,0-.16-1.34,8,8,0,0,1-3.32-2.51"/><path class="cls-3" d="M17.9,26.65a8.54,8.54,0,0,1-1.32,1.65,8.79,8.79,0,0,1-3,1.9A8.62,8.62,0,0,0,17.92,33a8.63,8.63,0,0,0,4.31-2.8,8.92,8.92,0,0,1-3-1.89,8.56,8.56,0,0,1-1.31-1.61"/><path class="cls-3" d="M31.28,13a8.44,8.44,0,0,1-2,2.91,8.05,8.05,0,0,1-1.67,1.26,9.6,9.6,0,0,1,1.72,1.28,8.43,8.43,0,0,1,2,2.87,8.29,8.29,0,0,0,2.86-4.16A8.3,8.3,0,0,0,31.28,13"/><path class="cls-1" d="M31.69,11.57a8.22,8.22,0,0,1,2.85,3V14.5a15.9,15.9,0,0,0-3-6.87l-.09-.09a7.88,7.88,0,0,1,.22,4"/><path class="cls-3" d="M16.88,24.69a7.47,7.47,0,0,1-.5-4,7.93,7.93,0,0,1-3.29,2.55A6.41,6.41,0,0,0,13,24.52a6,6,0,0,0,.65,2.71A6.54,6.54,0,0,0,16,25.75a6,6,0,0,0,.88-1.06"/><path class="cls-1" d="M3.91,11.74a7.81,7.81,0,0,1,.18-4.07l0,0a16,16,0,0,0-2.94,6.9v.12a8.16,8.16,0,0,1,2.81-3"/><path class="cls-1" d="M10.93,23.93a8.83,8.83,0,0,1-2.14.26,8.94,8.94,0,0,1-3.49-.68,8,8,0,0,0,1,4.89,8.9,8.9,0,0,0,5.11,1A8.16,8.16,0,0,1,10.69,26a9,9,0,0,1,.24-2"/><path class="cls-1" d="M16.33,13.76a7.36,7.36,0,0,1,.45-4,5.72,5.72,0,0,0-.87-1,6.64,6.64,0,0,0-2.44-1.48,6,6,0,0,0-.62,2.69A5.52,5.52,0,0,0,13,11.25a8.15,8.15,0,0,1,3.32,2.51"/><path class="cls-3" d="M7.42,13.12A6.21,6.21,0,0,0,9,15.44a6,6,0,0,0,1.1.84,8.28,8.28,0,0,1,3-.56,7.93,7.93,0,0,1,1.19.08,7.78,7.78,0,0,1-2.65-3.17,6.72,6.72,0,0,0-4.18.49"/><path class="cls-3" d="M17,18.12c-2.89,1.25-3.38,3.25-3.38,3.25A5.66,5.66,0,0,0,17,18.12"/><path class="cls-1" d="M14.27,18.65a10.2,10.2,0,0,1-1.24.1,8.24,8.24,0,0,1-2.95-.54A6.4,6.4,0,0,0,9,19.05a6.14,6.14,0,0,0-1.53,2.36,6.77,6.77,0,0,0,2.78.59,6.59,6.59,0,0,0,1.4-.15,7.77,7.77,0,0,1,2.61-3.2"/><path class="cls-3" d="M13.47,13.15a5.7,5.7,0,0,0,3.41,3.23,5.61,5.61,0,0,0-3.41-3.23"/><path class="cls-1" d="M8.74,10.32a9,9,0,0,1,2.1.24,8.33,8.33,0,0,1-.27-2.07,8.24,8.24,0,0,1,.71-3.37,9,9,0,0,0-5.07,1,8,8,0,0,0-1,4.92,8.89,8.89,0,0,1,3.52-.72"/><path class="cls-3" d="M8,17.26A8.72,8.72,0,0,1,6.31,16a8.42,8.42,0,0,1-2-2.87,8.28,8.28,0,0,0-2.85,4.16,8.21,8.21,0,0,0,2.91,4.15,8.46,8.46,0,0,1,2-2.9A8.77,8.77,0,0,1,8,17.26"/><path class="cls-1" d="M180.59,11.88a.51.51,0,0,0-.58-.51c-.4,0-.59.19-.59.51v5.85a.52.52,0,0,0,.59.51c.39,0,.58-.19.58-.51Z"/><path class="cls-1" d="M216.2,11.89a.45.45,0,0,0-.51.47.5.5,0,0,0,1,0,.44.44,0,0,0-.49-.48"/><path class="cls-1" d="M187.14,14.45a.45.45,0,0,0-.51.47.44.44,0,0,0,.5.49c.34,0,.5-.16.5-.48a.44.44,0,0,0-.49-.48"/><path class="cls-1" d="M197.38,18.93a.45.45,0,0,0-.5.47.44.44,0,0,0,.5.49c.33,0,.5-.16.5-.48a.44.44,0,0,0-.5-.48"/><path class="cls-1" d="M223.05,18.93a.45.45,0,0,0-.51.47.44.44,0,0,0,.5.49q.51,0,.51-.48a.44.44,0,0,0-.5-.48"/><path class="cls-1" d="M194.12,18.93a.45.45,0,0,0-.51.47.44.44,0,0,0,.5.49c.33,0,.5-.16.5-.48a.44.44,0,0,0-.49-.48"/><path class="cls-1" d="M192.9,18.93a.45.45,0,0,0-.51.47.44.44,0,0,0,.5.49q.51,0,.51-.48a.44.44,0,0,0-.5-.48"/><path class="cls-1" d="M219.48,16.32h0c-.52,0-.51-.3-.54-.42v-4a.51.51,0,0,0-.58-.51c-.39,0-.59.2-.59.51,0,2.16,0,3.87,0,5.52a.88.88,0,0,0,1,.85h4.93a.9.9,0,0,0,1-.85V14.83c0-.32-.19-.51-.59-.51a.51.51,0,0,0-.58.51v1.06c0,.12,0,.42-.54.42Z"/><path class="cls-1" d="M207,14.75c.52,0,.56-.31.56-.42v-.45s0,0,0,0-.08.06-.1.08l-.08.06a.74.74,0,0,1-.25,0,.39.39,0,0,1-.41-.33c0-.18.21-.33.43-.33a.38.38,0,0,1,.25.09c.05,0,.08.1.16.08s0-.26,0-.33a.75.75,0,0,0-.21-.29.71.71,0,0,0-.45-.16.74.74,0,0,0-.71.78.87.87,0,0,0,.15.46h-.26a.28.28,0,0,1-.21-.08c-.05,0,0,.07,0,.1v.3c0,.11,0,.4.49.42Z"/><path class="cls-1" d="M177.85,11.37a.52.52,0,0,0-.59.51v4c0,.12,0,.42-.54.42h-.46c-.32,0-.42-.12-.47-.26a2.76,2.76,0,0,0-.59-1.16,1.65,1.65,0,0,0-1.28-.61c-1.3,0-1.66,1.26-1.86,1.63a1,1,0,0,1-.91.4h-2.33c-.52,0-.51-.3-.53-.42v-4a.53.53,0,0,0-.59-.52c-.39,0-.58.2-.58.52v4c0,.12,0,.42-.53.42h-1.66c-.51,0-.5-.3-.53-.42v-4a.52.52,0,0,0-.58-.52c-.4,0-.59.2-.59.52v4c0,.12,0,.42-.53.42h-4.86a1.82,1.82,0,0,0-.87.12.66.66,0,0,0-.34.66.92.92,0,0,0,.34.79,1.93,1.93,0,0,0,.62.24c.22.06.34.13.34.23,0,.25-.39.37-1.16.37a1.62,1.62,0,0,1-1.31-.43,1.4,1.4,0,0,1-.2-.9v-.21c0-.15.1-.94-.53-.94-.45,0-.68.19-.68.6a10.46,10.46,0,0,0,.09,2,1.4,1.4,0,0,0,.8,1,5.57,5.57,0,0,0,2.06.27c1.85,0,2.8-.33,2.77-1.28-.06-.49-.58-.52-.63-.57h4.54a.69.69,0,0,0,.66-.5.71.71,0,0,0,.65.5h2.64a.69.69,0,0,0,.66-.5.71.71,0,0,0,.65.5h3.41a.87.87,0,0,0,.76-.44,3.48,3.48,0,0,0,.36-.89c.23-.79.61-.78.61-.78.37,0,.52.25.52.73a.35.35,0,0,1-.35.35c-.2,0-.92,0-.92.61a.67.67,0,0,0,.38.58,1.43,1.43,0,0,0,.72.18,1.28,1.28,0,0,0,.85-.26.26.26,0,0,1,.16-.07h2a.88.88,0,0,0,1-.85c0-1.65,0-3.36,0-5.52,0-.31-.19-.51-.58-.51"/><path class="cls-1" d="M198.46,14.3a.51.51,0,0,0-.58.51v1.06c0,.12,0,.42-.54.42h-2.72c-.5,0-.51-.27-.53-.4V14.81a.53.53,0,0,0-.59-.52c-.39,0-.58.2-.58.52v1c0,.31-.2.51-.59.51h-1.91a.52.52,0,0,1-.57-.41c0-.45-.07-.93-.08-1v0a.53.53,0,0,0-.59-.52h0c-.39,0-.59.2-.59.52v0c0,.43.06,1.76.06,1.87s.15,1.24-.22,1.62a1.78,1.78,0,0,1-1.26.41h-.1c-.72,0-1.32-.26-1.46-.74a2.12,2.12,0,0,1-.1-.94c0-.19.15-1.62.15-1.62,0-.32-.19-.51-.59-.51a.51.51,0,0,0-.58.51s-.13.89-.15,1.21a5.28,5.28,0,0,0,.36,2.43c.34.64,1.09,1,2.35,1h.14c1.26,0,2-.35,2.36-1a3.23,3.23,0,0,0,.27-.83h3.5a.74.74,0,0,0,.73-.51.7.7,0,0,0,.66.51H198a.88.88,0,0,0,1-.85V14.81c0-.32-.18-.51-.58-.51"/><path class="cls-1" d="M216.19,14.32a.51.51,0,0,0-.58.51v1.06c0,.12,0,.42-.54.42h-2.83c-.52,0-.51-.3-.54-.42v-4a.51.51,0,0,0-.58-.51c-.4,0-.58.2-.58.51,0,1.51,0,2.79,0,4,0,.13,0,.39-.53.39h-6.69a.64.64,0,0,1-.36-.08l-.09-.08,0-.05s-.05,0-.05,0v1.33a.88.88,0,0,0,1,.85H211a.79.79,0,0,0,.8-.56.81.81,0,0,0,.84.56h3.12a.88.88,0,0,0,1-.85V14.83c0-.32-.18-.51-.58-.51"/><path class="cls-1" d="M149.8,11.93a.53.53,0,0,0-.59-.52c-.39,0-.58.2-.58.52v5.85a.51.51,0,0,0,.58.51c.4,0,.59-.19.59-.51Z"/><path class="cls-1" d="M146,12.05a.45.45,0,0,0-.51.47.44.44,0,0,0,.5.49c.34,0,.5-.16.5-.48a.44.44,0,0,0-.49-.48"/><path class="cls-1" d="M141.24,12.05a.45.45,0,0,0-.51.47.45.45,0,0,0,.5.49q.51,0,.51-.48a.44.44,0,0,0-.5-.48"/><path class="cls-1" d="M134.11,12.05a.45.45,0,0,0-.51.47.44.44,0,0,0,.5.49q.51,0,.51-.48a.44.44,0,0,0-.5-.48"/><path class="cls-1" d="M112.46,14.47a.45.45,0,0,0-.51.47.44.44,0,0,0,.5.49c.34,0,.51-.17.51-.48a.44.44,0,0,0-.5-.48"/><path class="cls-1" d="M112.45,20.09h-.07c-1.25,0-2-.35-2.35-1a5.28,5.28,0,0,1-.36-2.43c0-.32.15-1.21.15-1.21a.51.51,0,0,1,.58-.51c.4,0,.59.19.59.51,0,0-.14,1.43-.15,1.62a2.44,2.44,0,0,0,.1.93c.15.49.74.75,1.46.75h.11c.71,0,1.31-.26,1.46-.75a2.16,2.16,0,0,0,.09-.93c0-.19-.14-1.62-.14-1.62,0-.32.19-.51.58-.51a.52.52,0,0,1,.59.51s.13.89.14,1.21a5.08,5.08,0,0,1-.35,2.43c-.34.64-1.1,1-2.36,1Z"/><path class="cls-1" d="M121.05,12.05a.45.45,0,0,0-.5.47.44.44,0,0,0,.5.49c.33,0,.5-.16.5-.48a.44.44,0,0,0-.5-.48"/><path class="cls-1" d="M122.26,13q.51,0,.51-.48a.44.44,0,0,0-.5-.48.45.45,0,0,0-.51.47.45.45,0,0,0,.5.49"/><path class="cls-1" d="M145.84,14a1.27,1.27,0,0,0-.92.36,1.18,1.18,0,0,0-.38.9,1.79,1.79,0,0,0,.54,1l.06.07h-2.93a.26.26,0,0,1,0-.14.47.47,0,0,1,.28-.5c.17-.09.79-.25.79-.79,0-.74-.62-1.1-1.92-1.1h-.17c-1.29,0-1.92.36-1.92,1.1,0,.54.62.7.79.79a.46.46,0,0,1,.28.5.19.19,0,0,1,0,.14h-2.88c-.52,0-.51-.3-.54-.42v-4a.51.51,0,0,0-.58-.51c-.39,0-.59.2-.59.51,0,2.16,0,3.87,0,5.52a.88.88,0,0,0,1,.85h4.84a.7.7,0,0,1,1.35,0h4c.48,0,.72-.41.72-1.22,0-2.06-.61-3.1-1.8-3.1m-4.56,1.41,0,0-.05,0c-.37-.37-.37-.45-.37-.48s.11-.23.34-.25a.63.63,0,0,1,.15,0c.23,0,.34.11.34.25s0,.11-.37.48m5,1a.77.77,0,0,1-.6-.88c0-.16.13-.25.34-.25a.6.6,0,0,1,.47.3,1,1,0,0,1,.2.56c0,.12-.07.27-.41.27"/><path class="cls-1" d="M134.1,14.32a.51.51,0,0,0-.58.51v1.06c0,.12,0,.42-.54.42H131c-.5,0-.51-.27-.53-.4V14.83a.52.52,0,0,0-.59-.51c-.39,0-.58.19-.58.51v1c0,.31-.2.51-.59.51a.52.52,0,0,1-.59-.51v-1a.51.51,0,0,0-.58-.51c-.39,0-.59.19-.59.51v1c0,.31-.19.51-.58.51a.52.52,0,0,1-.59-.51v-1a.51.51,0,0,0-.58-.51c-.4,0-.59.19-.59.51v1.08c0,.13,0,.4-.53.4h-1.33c-.53,0-.51-.3-.54-.42V14.83c0-.32-.19-.51-.58-.51a.52.52,0,0,0-.59.51v1.06c0,.12,0,.42-.53.42H118c-.53,0-.53-.31-.54-.42v-4a.51.51,0,0,0-.58-.51c-.4,0-.59.2-.59.51v5.52a.9.9,0,0,0,1,.85h4.28a.71.71,0,0,0,.72-.51.72.72,0,0,0,.75.51h2.44a1,1,0,0,0,1-.7,1,1,0,0,0,1,.7,1,1,0,0,0,1-.7,1,1,0,0,0,1,.7h4.15a.9.9,0,0,0,1-.85V14.83c0-.32-.19-.51-.59-.51"/><path class="cls-1" d="M208.72,22.69h-.58a.15.15,0,0,0-.15.14v6a.15.15,0,0,0,.15.14h.58a.15.15,0,0,0,.15-.14v-6a.15.15,0,0,0-.15-.14"/><path class="cls-1" d="M131.63,26.08l-.34.11a7.34,7.34,0,0,0-1.64.67,1.12,1.12,0,0,0-.59,1c0,.85.82,1.24,1.58,1.24a2.74,2.74,0,0,0,.92-.16l.06,0a.88.88,0,0,1,.36-.1h0c0,.13,0,.22.18.22h.48a.15.15,0,0,0,.15-.15V25.65a1.09,1.09,0,0,0-.47-1,2,2,0,0,0-1.1-.26,4.48,4.48,0,0,0-1.74.32.22.22,0,0,0-.1.23v.36a.13.13,0,0,0,.14.14.28.28,0,0,0,.16-.06h0a3,3,0,0,1,1.4-.34c.34,0,.8.06.8.55v.2c0,.17-.1.22-.27.27m.27,1.78a.39.39,0,0,1-.27.44,1.9,1.9,0,0,1-.78.14c-.57,0-.85-.21-.85-.63s.45-.71.93-.87l1-.32Z"/><path class="cls-1" d="M206.28,24.67a2.07,2.07,0,0,0-1.11-.26,4.75,4.75,0,0,0-1.74.32c-.09.07-.09.13-.09.24v.36a.12.12,0,0,0,.14.13.23.23,0,0,0,.16-.06h0a2.84,2.84,0,0,1,1.4-.34c.34,0,.79.05.79.55v.19c0,.18-.1.22-.26.28l-.35.11a6.87,6.87,0,0,0-1.64.66,1.14,1.14,0,0,0-.58,1c0,.85.81,1.24,1.57,1.24a2.66,2.66,0,0,0,.92-.16l.07,0a.87.87,0,0,1,.36-.09h0c0,.12,0,.21.18.21h.47a.15.15,0,0,0,.15-.14V25.64a1.12,1.12,0,0,0-.46-1m-.44,3.18c0,.24,0,.34-.26.44a2,2,0,0,1-.79.15c-.56,0-.85-.22-.85-.63,0-.57.46-.72.94-.87l1-.33Z"/><path class="cls-1" d="M200.48,24.41a2.75,2.75,0,0,0-.86.14l-.18.07a.91.91,0,0,1-.31.09h-.07v0c0-.07,0-.13,0-.16a.22.22,0,0,0-.16,0h-.45a.15.15,0,0,0-.15.15v4.24a.15.15,0,0,0,.15.14H199a.15.15,0,0,0,.15-.14V25.62c0-.27.13-.37.36-.46a1.87,1.87,0,0,1,.66-.1c.73,0,1.07.32,1.07,1v2.79a.15.15,0,0,0,.15.14h.6a.15.15,0,0,0,.15-.14V26a1.49,1.49,0,0,0-1.66-1.55"/><path class="cls-1" d="M195,24.41a2.16,2.16,0,0,0-1.69.68.71.71,0,0,0-.1.14l-.05.06a3.24,3.24,0,0,0-.17.32l0,.05a2.22,2.22,0,0,0-.12.39,0,0,0,0,0,0,0,3,3,0,0,0-.07.45h0a2,2,0,0,0,0,.25,2.17,2.17,0,0,0,2.28,2.38,2.14,2.14,0,0,0,1.68-.69,1.21,1.21,0,0,0,.1-.14.16.16,0,0,0,0-.07,1.65,1.65,0,0,0,.18-.32l0,0a1.87,1.87,0,0,0,.13-.4v0a2.71,2.71,0,0,0,.09-.71A2.13,2.13,0,0,0,195,24.41m0,4.11a1.43,1.43,0,0,1-.58-.11h0a1,1,0,0,1-.22-.13h0a1.76,1.76,0,0,1-.51-1.47c0-.76.13-1.75,1.32-1.75a1.48,1.48,0,0,1,.57.1h0a.82.82,0,0,1,.2.12l0,0a.91.91,0,0,1,.17.17v0a2.08,2.08,0,0,1,.32,1.29c0,1.17-.43,1.74-1.31,1.74"/><path class="cls-1" d="M191.38,22.69a.48.48,0,0,0-.54.5.46.46,0,0,0,.53.52q.54,0,.54-.51a.47.47,0,0,0-.53-.51"/><path class="cls-1" d="M119.19,30.62a4.62,4.62,0,0,0,1.57.26,2.76,2.76,0,0,0,1.57-.39l.1-.09.08-.07.17-.19.06-.1a1.15,1.15,0,0,0,.12-.25l0-.09a2.72,2.72,0,0,0,.07-.33v-.06a1.36,1.36,0,0,0,0-.2V24.63a.15.15,0,0,0-.15-.14h-.49a.16.16,0,0,0-.11,0,.24.24,0,0,0,0,.17h0a0,0,0,0,0,0,0h0a.49.49,0,0,1-.25-.1l-.12-.07a2,2,0,0,0-.75-.12,2.24,2.24,0,0,0-2.34,2.34A2.13,2.13,0,0,0,120.93,29a2.25,2.25,0,0,0,1-.25.33.33,0,0,1,.14,0v.42a.92.92,0,0,1-.32.84,2.17,2.17,0,0,1-1.06.24,3.31,3.31,0,0,1-1.4-.31h0a.55.55,0,0,0-.23-.09c-.09,0-.13.08-.13.16v.38c0,.16.11.2.24.26Zm2.7-2.42a1.72,1.72,0,0,1-.78.17,1.46,1.46,0,0,1-1.48-1.64c0-1.06.55-1.67,1.5-1.67a1.57,1.57,0,0,1,.8.2c.15.1.16.15.16.32v2.29a.3.3,0,0,1-.2.33"/><path class="cls-1" d="M117.77,22.62a1.52,1.52,0,0,0-1,.31,1.47,1.47,0,0,0-.42,1.34v.22h-.59a.15.15,0,0,0-.15.14V25a.15.15,0,0,0,.15.15h.59v3.73a.16.16,0,0,0,.15.15h.6a.15.15,0,0,0,.14-.15V25.14h.91c.07,0,.15,0,.15-.13v-.38a.15.15,0,0,0-.15-.14h-.9V24.2c0-.1,0-.2,0-.3,0-.43.18-.63.56-.63a1,1,0,0,1,.29.07.41.41,0,0,0,.16.05c.08,0,.11-.08.11-.15v-.37c0-.23-.49-.25-.64-.25"/><path class="cls-1" d="M153.54,28.87V25.62c0-.26.13-.37.36-.45a1.82,1.82,0,0,1,.66-.11c.72,0,1.07.33,1.07,1v2.78a.15.15,0,0,0,.14.15h.6a.15.15,0,0,0,.15-.15V26a1.48,1.48,0,0,0-1.65-1.54,2.86,2.86,0,0,0-.87.14l-.17.06a.82.82,0,0,1-.32.09h-.06v0c0-.07,0-.12,0-.15s-.07,0-.15,0h-.46a.15.15,0,0,0-.15.14v4.24a.15.15,0,0,0,.15.15h.59a.15.15,0,0,0,.15-.15"/><path class="cls-1" d="M224.26,24.41a2.86,2.86,0,0,0-.87.14l-.17.07a1,1,0,0,1-.32.09h-.07v0c0-.07,0-.13,0-.16s-.07,0-.16,0h-.45a.15.15,0,0,0-.15.15v4.24a.15.15,0,0,0,.15.14h.59a.14.14,0,0,0,.14-.14V25.62c0-.27.14-.37.37-.46a1.83,1.83,0,0,1,.66-.1c.72,0,1.06.32,1.06,1v2.79a.15.15,0,0,0,.15.14h.6a.15.15,0,0,0,.15-.14V26a1.48,1.48,0,0,0-1.65-1.55"/><path class="cls-1" d="M230.77,28.72l-1.84-2.24,1.78-1.7a.26.26,0,0,0,.09-.18c0-.08-.08-.12-.16-.12h-.57a.16.16,0,0,0-.15.08l-1.71,1.65s-.06,0-.1.06h0V22.83a.15.15,0,0,0-.15-.14h-.63a.16.16,0,0,0-.16.14v6a.16.16,0,0,0,.16.14h.63a.15.15,0,0,0,.15-.14v-2c.09,0,.1,0,.16.08l1.49,1.92A.27.27,0,0,0,230,29h.68c.08,0,.18,0,.18-.12a.34.34,0,0,0-.08-.17"/><path class="cls-1" d="M215,25.74a1.14,1.14,0,0,0,1.09-1.26,1.31,1.31,0,0,0-.55-1.16,2.25,2.25,0,0,0-1.31-.33h-1.83a.11.11,0,0,0-.11.1V28.9a.11.11,0,0,0,.11.11h1.95a2.55,2.55,0,0,0,1.47-.4c.05,0,.07-.06.11-.09l.06-.05a2,2,0,0,0,.19-.22s0,0,0,0a1.25,1.25,0,0,0,.15-.28s0,0,0,0a2,2,0,0,0,.08-.35v0a1.11,1.11,0,0,0,0-.19c0-.85-.47-1.37-1.46-1.58m-1.78-2.17h.91a.92.92,0,0,1,1,1,1,1,0,0,1-.3.72,1.09,1.09,0,0,1-.89.26h-.71Zm1,4.86h-1V26.14h.91c.91,0,1.36.38,1.36,1.15s-.45,1.14-1.31,1.14"/><path class="cls-1" d="M136.26,24.42a2.86,2.86,0,0,0-.87.14l-.17.06a.82.82,0,0,1-.32.09h-.06v0c0-.07,0-.12,0-.15s-.07,0-.15,0h-.46a.15.15,0,0,0-.15.14v4.24a.15.15,0,0,0,.15.15h.59a.15.15,0,0,0,.15-.15V25.62c0-.26.13-.37.36-.45a1.82,1.82,0,0,1,.66-.11c.73,0,1.07.33,1.07,1v2.78a.15.15,0,0,0,.14.15h.6a.15.15,0,0,0,.15-.15V26a1.48,1.48,0,0,0-1.65-1.54"/><path class="cls-1" d="M147.17,24.49h-1.34V23.43a.15.15,0,0,0-.15-.14h-.59a.15.15,0,0,0-.15.14v1.06h-.5a.16.16,0,0,0-.16.14v.09c0,.23,0,.33.06.39a.25.25,0,0,0,.17,0h.43v2.79a1.08,1.08,0,0,0,.36.87,1.4,1.4,0,0,0,.93.29,2.67,2.67,0,0,0,1-.19c.09,0,.11-.08.11-.17v-.32c0-.08,0-.16-.13-.16a.54.54,0,0,0-.18.06,1.16,1.16,0,0,1-.52.13c-.46,0-.66-.21-.66-.7v-2.6h1.34a.15.15,0,0,0,.15-.15v-.36a.15.15,0,0,0-.15-.14"/><path class="cls-1" d="M220.33,24.67a2,2,0,0,0-1.11-.26,4.66,4.66,0,0,0-1.73.32c-.1.07-.1.13-.1.24v.36a.12.12,0,0,0,.14.13.23.23,0,0,0,.16-.06h0a2.84,2.84,0,0,1,1.4-.34c.34,0,.8.05.8.55v.19c0,.18-.1.22-.27.28l-.34.11a6.71,6.71,0,0,0-1.64.66,1.13,1.13,0,0,0-.59,1c0,.85.82,1.24,1.57,1.24a2.66,2.66,0,0,0,.92-.16l.07,0a.87.87,0,0,1,.36-.09h0c0,.12,0,.21.18.21h.47a.15.15,0,0,0,.15-.14V25.64a1.09,1.09,0,0,0-.46-1m-.43,3.18c0,.24,0,.34-.27.44a2,2,0,0,1-.78.15c-.57,0-.85-.22-.85-.63,0-.57.45-.72.93-.87l1-.33Z"/><path class="cls-1" d="M150.16,28.93l.07,0a.88.88,0,0,1,.36-.1h0c0,.13,0,.22.18.22h.48a.15.15,0,0,0,.14-.15V25.65a1.08,1.08,0,0,0-.46-1,2,2,0,0,0-1.11-.26,4.46,4.46,0,0,0-1.73.32.22.22,0,0,0-.1.23v.36a.13.13,0,0,0,.14.14.28.28,0,0,0,.16-.06h0a3,3,0,0,1,1.4-.34c.34,0,.8.06.8.55v.2c0,.17-.1.22-.27.27l-.34.11a7.42,7.42,0,0,0-1.65.67,1.13,1.13,0,0,0-.58,1c0,.85.82,1.24,1.57,1.24a2.66,2.66,0,0,0,.92-.16m-1.55-1.12c0-.56.45-.71.93-.87l1-.32v1.24a.39.39,0,0,1-.27.44,1.9,1.9,0,0,1-.78.14c-.57,0-.85-.21-.85-.63"/><path class="cls-1" d="M125.21,28.87V25.63c0-.28.14-.39.38-.47a1.9,1.9,0,0,1,.63-.11c.73,0,1.07.31,1.07.95v2.87a.16.16,0,0,0,.15.15h.6a.15.15,0,0,0,.15-.15V26a1.5,1.5,0,0,0-1.67-1.56,2.66,2.66,0,0,0-1.07.22l0,0a.61.61,0,0,1-.18.05h0V22.84a.15.15,0,0,0-.15-.15h-.59a.15.15,0,0,0-.15.15v6a.15.15,0,0,0,.15.15h.59a.15.15,0,0,0,.15-.15"/><path class="cls-1" d="M173.64,25.13a1.71,1.71,0,0,0-.11-.14,1.09,1.09,0,0,0-.11-.1l-.06,0a1.51,1.51,0,0,0-.26-.18l-.06,0a1.53,1.53,0,0,0-.32-.13h-.05a2.2,2.2,0,0,0-.37-.07h0l-.21,0a2,2,0,0,0-1.61.71,1.4,1.4,0,0,0-.1.16l0,0a2.8,2.8,0,0,0-.39,1.49c0,.08,0,.15,0,.23v0a2,2,0,0,0,.07.43.08.08,0,0,0,0,0,2.6,2.6,0,0,0,.13.36.14.14,0,0,1,0,.06c.06.1.12.2.19.3l0,.06a.45.45,0,0,0,.1.13,2.24,2.24,0,0,0,1.67.65,3.76,3.76,0,0,0,1.4-.29l0,0c.12-.06.17-.08.17-.24v-.08a.61.61,0,0,0-.05-.39.12.12,0,0,0-.09,0,.27.27,0,0,0-.15,0l0,0a2.85,2.85,0,0,1-1.13.34,1.45,1.45,0,0,1-1.52-1.54v0h3.11a.15.15,0,0,0,.15-.14v-.25a2.2,2.2,0,0,0-.41-1.31l0,0m-.46,1.07h-2.37a1.16,1.16,0,0,1,1.2-1.15,1.06,1.06,0,0,1,1.17,1.07Z"/><path class="cls-1" d="M164.36,24.41a2.75,2.75,0,0,0-.86.14l-.18.07a1,1,0,0,1-.32.09h-.06v0c0-.07,0-.13,0-.16s-.07,0-.15,0h-.46a.15.15,0,0,0-.15.15v4.24a.15.15,0,0,0,.15.14h.59a.15.15,0,0,0,.15-.14V25.62c0-.27.13-.37.36-.46a1.83,1.83,0,0,1,.66-.1c.73,0,1.07.32,1.07,1v2.79a.15.15,0,0,0,.15.14h.59a.15.15,0,0,0,.15-.14V26a1.48,1.48,0,0,0-1.65-1.55"/><path class="cls-1" d="M169.55,24.48h-1.34V23.43a.15.15,0,0,0-.14-.15h-.59a.15.15,0,0,0-.15.15v1.05h-.51a.15.15,0,0,0-.15.15v.08c0,.23,0,.34.05.39a.3.3,0,0,0,.18,0h.43v2.79a1.06,1.06,0,0,0,.35.87,1.43,1.43,0,0,0,.94.3,2.4,2.4,0,0,0,1-.2.15.15,0,0,0,.11-.17V28.4c0-.08,0-.15-.13-.15a.51.51,0,0,0-.17.05,1.19,1.19,0,0,1-.52.14c-.46,0-.67-.22-.67-.71v-2.6h1.34a.15.15,0,0,0,.15-.14v-.36a.15.15,0,0,0-.15-.15"/><path class="cls-1" d="M160.66,23H160a.11.11,0,0,0-.11.1V28.9A.11.11,0,0,0,160,29h.7a.12.12,0,0,0,.12-.11V23.09a.12.12,0,0,0-.12-.1"/><path class="cls-1" d="M191.67,24.48h-.59a.15.15,0,0,0-.15.15v4.24a.15.15,0,0,0,.15.14h.59a.15.15,0,0,0,.15-.14V24.63a.15.15,0,0,0-.15-.15"/><path class="cls-1" d="M139.9,24.49h-.59a.15.15,0,0,0-.15.14v4.24a.15.15,0,0,0,.15.15h.59a.15.15,0,0,0,.15-.15V24.63a.15.15,0,0,0-.15-.14"/><path class="cls-1" d="M110.36,29h.55a.1.1,0,0,0,.11-.08l.71-2.11h2.21l.71,2.11a.12.12,0,0,0,.11.08h.63s.17,0,.17-.1a.07.07,0,0,0,0-.05l-2-5.55h0c-.1-.29-.13-.39-.48-.39h-.4c-.24,0-.31.06-.44.42l-2,5.47,0,0,0,.05h0c0,.11,0,.13.14.13m2.48-5.44.9,2.66H112Z"/><path class="cls-1" d="M139.6,23.72q.54,0,.54-.51a.48.48,0,0,0-.53-.52.49.49,0,0,0-.55.51.48.48,0,0,0,.54.52"/><path class="cls-1" d="M141.21,28.88h0a3.06,3.06,0,0,0,1.09.2c.74,0,1.61-.35,1.61-1.32s-.63-1.15-1.18-1.44-.77-.4-.77-.75.35-.52.65-.52a1.7,1.7,0,0,1,.93.28h0a.47.47,0,0,0,.15.06c.08,0,.12-.08.12-.15v-.41c0-.15-.08-.18-.19-.22l0,0a2.43,2.43,0,0,0-1-.19c-.75,0-1.55.34-1.55,1.3,0,.76.51,1,1.1,1.34l.16.09.11.06c.28.15.58.3.58.66,0,.53-.59.57-.76.57a2.1,2.1,0,0,1-1-.29h0a.25.25,0,0,0-.12,0,.13.13,0,0,0-.13.15v.39c0,.17.08.19.22.24"/><path class="cls-1" d="M177,24.48a2,2,0,0,0-1,.24.45.45,0,0,1-.24.06h0v-.05a.25.25,0,0,0,0-.21s-.07,0-.13,0h-.47a.15.15,0,0,0-.15.15v4.24a.15.15,0,0,0,.15.14h.55a.14.14,0,0,0,.14-.14V25.73c0-.48.35-.52.74-.52a3.8,3.8,0,0,1,.63.06l.12,0a.14.14,0,0,0,.14-.16v-.21c0-.17,0-.28-.05-.36s-.17-.08-.37-.08"/><path class="cls-1" d="M186.05,24.67a2,2,0,0,0-1.11-.26,4.66,4.66,0,0,0-1.73.32c-.1.07-.1.13-.1.24v.36a.12.12,0,0,0,.14.13.23.23,0,0,0,.16-.06h0a2.84,2.84,0,0,1,1.4-.34c.34,0,.8.05.8.55v.19c0,.18-.1.22-.27.28l-.34.11a6.71,6.71,0,0,0-1.64.66,1.13,1.13,0,0,0-.59,1c0,.85.82,1.24,1.57,1.24a2.66,2.66,0,0,0,.92-.16l.07,0a.87.87,0,0,1,.36-.09h0c0,.12,0,.21.18.21h.47a.15.15,0,0,0,.15-.14V25.64a1.09,1.09,0,0,0-.46-1m-.43,3.18c0,.24,0,.34-.27.44a2,2,0,0,1-.78.15c-.57,0-.85-.22-.85-.63,0-.57.45-.72.93-.87l1-.33Z"/><path class="cls-1" d="M190.05,24.48h-1.34V23.43a.15.15,0,0,0-.15-.15H188a.15.15,0,0,0-.15.15v1.05h-.5a.15.15,0,0,0-.15.15v.08c0,.23,0,.34.05.39a.3.3,0,0,0,.18,0h.42v2.79a1.07,1.07,0,0,0,.36.87,1.42,1.42,0,0,0,.93.3,2.49,2.49,0,0,0,1-.2.15.15,0,0,0,.11-.17V28.4c0-.08,0-.15-.13-.15a.62.62,0,0,0-.18.05,1.15,1.15,0,0,1-.51.14c-.46,0-.67-.22-.67-.71v-2.6h1.34a.15.15,0,0,0,.15-.14v-.36a.15.15,0,0,0-.15-.15"/><path class="cls-1" d="M180.25,24.41a2.85,2.85,0,0,0-.86.14l-.17.07a1,1,0,0,1-.32.09h-.07v0c0-.07,0-.13,0-.16s-.07,0-.15,0h-.46a.15.15,0,0,0-.15.15v4.24a.15.15,0,0,0,.15.14h.59a.15.15,0,0,0,.15-.14V25.62c0-.27.13-.37.36-.46a1.83,1.83,0,0,1,.66-.1c.72,0,1.06.32,1.06,1v2.79a.15.15,0,0,0,.15.14h.6a.15.15,0,0,0,.15-.14V26a1.49,1.49,0,0,0-1.66-1.55"/></g></g></svg>